<?xml version="1.0" encoding="UTF-8" standalone="no"?>
<svg
   xmlns:dc="http://purl.org/dc/elements/1.1/"
   xmlns:cc="http://creativecommons.org/ns#"
   xmlns:rdf="http://www.w3.org/1999/02/22-rdf-syntax-ns#"
   xmlns:svg="http://www.w3.org/2000/svg"
   xmlns="http://www.w3.org/2000/svg"
   xmlns:sodipodi="http://sodipodi.sourceforge.net/DTD/sodipodi-0.dtd"
   xmlns:inkscape="http://www.inkscape.org/namespaces/inkscape"
   width="512"
   height="512"
   viewBox="0 0 135.46667 135.46667"
   version="1.1"
   id="svg8"
   inkscape:version="1.0.1 (c497b03c, 2020-09-10)"
   sodipodi:docname="dog.svg"
   inkscape:export-filename="/Users/sneetsher/Documents/coding-projects/imrdb/watchdog-webextension/icons/dog-32.png"
   inkscape:export-xdpi="6"
   inkscape:export-ydpi="6">
  <defs
     id="defs2" />
  <sodipodi:namedview
     id="base"
     pagecolor="#ffffff"
     bordercolor="#666666"
     borderopacity="1.0"
     inkscape:pageopacity="0.0"
     inkscape:pageshadow="2"
     inkscape:zoom="1.0683594"
     inkscape:cx="274.01987"
     inkscape:cy="259.74406"
     inkscape:document-units="px"
     inkscape:current-layer="layer1"
     inkscape:document-rotation="0"
     showgrid="false"
     units="px"
     inkscape:pagecheckerboard="true"
     inkscape:window-width="1248"
     inkscape:window-height="755"
     inkscape:window-x="32"
     inkscape:window-y="23"
     inkscape:window-maximized="0" />
  <metadata
     id="metadata5">
    <rdf:RDF>
      <cc:Work
         rdf:about="">
        <dc:format>image/svg+xml</dc:format>
        <dc:type
           rdf:resource="http://purl.org/dc/dcmitype/StillImage" />
        <dc:title></dc:title>
        <cc:license
           rdf:resource="http://creativecommons.org/licenses/by-sa/4.0/" />
      </cc:Work>
      <cc:License
         rdf:about="http://creativecommons.org/licenses/by-sa/4.0/">
        <cc:permits
           rdf:resource="http://creativecommons.org/ns#Reproduction" />
        <cc:permits
           rdf:resource="http://creativecommons.org/ns#Distribution" />
        <cc:requires
           rdf:resource="http://creativecommons.org/ns#Notice" />
        <cc:requires
           rdf:resource="http://creativecommons.org/ns#Attribution" />
        <cc:permits
           rdf:resource="http://creativecommons.org/ns#DerivativeWorks" />
        <cc:requires
           rdf:resource="http://creativecommons.org/ns#ShareAlike" />
      </cc:License>
    </rdf:RDF>
  </metadata>
  <g
     inkscape:label="طبقة 1"
     inkscape:groupmode="layer"
     id="layer1">
    <path
       style="fill:#000000;fill-opacity:1;fill-rule:nonzero;stroke:none;stroke-width:0.334664"
       id="path40"
       d="m 55.671549,55.306397 c -0.154216,-1.773125 -0.439529,-3.605439 -1.268425,-5.210927 -0.914463,-1.771221 -2.310666,-3.386883 -3.778702,-4.712134 -0.71358,-0.644175 -1.526443,-1.169019 -2.289665,-1.753527 -0.706898,-0.395637 -1.341804,-0.964281 -2.120693,-1.186916 -0.688301,-0.196744 -1.4825,-0.298465 -2.147347,-0.03306 -3.191691,1.274153 -5.427911,2.24373 -6.968759,5.032417 -0.926488,1.676799 -1.233197,3.36041 -1.704425,5.189706 -0.35476,2.0091 -0.548722,2.720232 -0.651354,4.706591 -0.03182,0.615893 6.7e-4,1.233429 6.7e-4,1.850142 0,0 3.835379,-1.961457 3.835379,-1.961457 v 0 c -0.01783,-0.591754 -0.07031,-1.183481 -0.05347,-1.775264 0.05487,-1.926943 0.246193,-2.635539 0.570586,-4.585674 0.523961,-1.879589 0.794125,-3.388657 1.848642,-5.068424 0.421707,-0.671748 1.800149,-1.059945 1.543904,-1.810561 -0.222442,-0.65159 -2.050328,0.271764 -1.844881,0.928915 0.431249,1.379412 4.298391,-2.397766 4.242117,0.896235 0.764126,0.55675 1.585325,1.042605 2.292377,1.670252 3.110956,2.761569 4.615482,5.769529 4.393701,9.912853 0,0 4.100236,-2.089176 4.100236,-2.089176 z" />
    <path
       style="fill:#000000;fill-opacity:1;fill-rule:nonzero;stroke:none;stroke-width:0.334664"
       id="path42"
       d="m 39.713762,60.496588 c -0.02025,-0.1373 -0.0105,-0.282513 -0.0607,-0.411897 -0.517809,-1.334475 -2.622587,-1.851635 -3.806894,-2.177374 -2.568524,-0.516326 -5.268345,-1.288132 -7.907907,-0.757953 -2.785458,0.559485 -5.593631,2.688462 -7.785192,3.94807 -2.498874,1.930645 -4.633683,4.289075 -5.954435,7.182901 -0.2849,0.624229 -0.567064,1.259271 -0.722125,1.927689 -0.152345,0.656705 -0.128077,1.342194 -0.192115,2.01329 0.268058,2.218436 0.733047,3.620064 2.361225,5.200794 0.421428,0.409147 0.878674,0.789018 1.378241,1.097943 1.302642,0.805531 2.16288,0.934156 3.628974,1.349605 3.083324,0.485443 6.265338,0.998513 9.398484,0.696841 0.450939,-0.04342 0.896158,-0.133532 1.344237,-0.200294 1.559201,-0.32955 3.006303,-1.028497 4.373637,-1.830289 5.111241,-2.997183 3.44541,-1.769856 6.043237,-3.810183 2.230351,-1.60932 3.879707,-3.87831 6.043389,-5.56139 0.394807,-0.307115 0.825774,-0.56468 1.238659,-0.84702 -0.85923,0.506415 -1.739227,0.979144 -2.577694,1.519239 -0.347797,0.224034 0.738744,-0.37287 1.102875,-0.569241 0.375828,-0.202676 0.75081,-0.40751 1.116645,-0.627706 1.613537,-0.971182 3.237998,-1.925695 4.820882,-2.94607 0.119657,-0.07713 1.61924,-1.338138 1.770247,-1.464581 0.228599,-0.241346 0.48779,-0.457024 0.685801,-0.724043 1.082114,-1.459234 1.100096,-3.657961 1.217027,-5.399437 0.09355,-1.279689 0.04994,-2.5621 0.03972,-3.843341 -0.02131,-0.54898 0.02938,-1.101354 -0.06504,-1.643797 0,0 -4.102936,2.169411 -4.102936,2.169411 v 0 c 0.06549,0.521891 0.02969,1.051341 0.07171,1.575642 0.05874,1.247615 0.08941,2.497794 0.06078,3.74662 -0.0837,1.440476 -0.135772,3.006166 -0.816631,4.318056 -0.362933,0.699306 -0.68229,0.930672 -1.230734,1.472965 -0.273926,0.228947 -0.544683,0.461741 -0.821779,0.686839 -0.304079,0.247019 -1.284836,0.876134 -0.921587,0.72939 0.957182,-0.386674 1.808161,-0.997832 2.731078,-1.460374 0.379204,-0.190049 -0.725469,0.440394 -1.098556,0.642193 -0.371153,0.200752 -0.755281,0.376528 -1.132919,0.56479 -1.639779,0.953215 -3.279556,1.906425 -4.919335,2.85964 -0.401366,0.295067 -0.818695,0.569572 -1.204098,0.8852 -2.119703,1.735948 -3.817355,3.956368 -6.074244,5.53756 -2.14392,1.580817 -1.425413,0.971654 1.478309,-0.602814 0.347021,-0.188161 -0.678013,0.40491 -1.02501,0.593113 -0.457723,0.24826 -1.633268,0.829193 -2.114884,1.012747 -0.381805,0.145512 -0.779417,0.24556 -1.169127,0.368338 -0.448343,0.08539 -0.892686,0.195417 -1.345029,0.256169 -3.118348,0.418812 -6.314956,-0.03833 -9.393652,-0.520966 -1.401871,-0.381694 -2.236758,-0.503904 -3.492635,-1.240189 -1.535897,-0.900454 -2.761054,-2.268599 -3.266705,-3.995221 -0.179842,-0.614104 -0.202956,-1.263589 -0.304435,-1.895386 0.07631,-0.636567 0.07288,-1.287862 0.228928,-1.909707 0.161879,-0.645077 0.434418,-1.259931 0.717508,-1.861748 1.334621,-2.83726 3.482566,-5.127866 6.000857,-6.956908 -0.523853,0.280924 -2.156898,0.739221 -1.571561,0.842772 0.713736,0.126272 1.332089,-0.592396 2.037168,-0.760401 2.561742,-0.610407 5.203803,0.125728 7.684271,0.72239 0.763019,0.224582 3.086144,0.8405 3.353607,1.818471 0.03408,0.124565 0.0095,0.25811 0.01423,0.387168 0,0 4.136229,-2.107516 4.136229,-2.107516 z" />
    <path
       style="fill:#000000;fill-opacity:1;fill-rule:nonzero;stroke:none;stroke-width:0.334664"
       id="path46"
       d="m 55.181574,70.387681 c 0.656799,-0.233565 1.304019,-0.496055 1.970396,-0.700703 1.053904,-0.323653 2.126071,-0.584585 3.187329,-0.883239 3.090899,-0.869819 4.89721,-1.321911 7.917106,-2.534838 2.496887,-1.002861 4.682092,-2.170451 7.069392,-3.380958 5.439326,-3.032146 10.964285,-5.906016 16.769759,-8.180867 1.43974,-0.564153 2.8808,-1.136744 4.36508,-1.570365 1.21677,-0.35547 2.47974,-0.527678 3.719614,-0.791518 1.00576,0.08736 2.04769,-0.01907 3.01729,0.262103 0.84918,0.24627 1.61421,0.753279 2.32006,1.285766 2.32521,1.754121 3.51808,4.645627 4.55167,7.254284 0.35548,1.238948 0.82297,2.613494 0.89351,3.915295 0.15649,2.887959 -0.83036,5.978165 -2.6207,8.252711 -0.90536,1.150221 -2.08854,2.051529 -3.13281,3.077294 -1.48553,0.924578 -2.88017,2.01445 -4.4566,2.773733 -0.73742,0.355175 -1.602344,0.336209 -2.398104,0.527808 -1.97302,0.475063 -3.9114,1.106387 -5.9076,1.472014 -3.62088,0.663208 -7.674168,0.883334 -11.356082,0.742159 -1.633676,-0.06265 -3.255737,-0.302424 -4.883608,-0.453634 -3.601092,-0.787181 -4.452206,-0.636305 -7.534277,-2.5263 -2.814369,-1.725835 -4.835618,-4.35716 -6.576478,-7.087538 -0.65854,-1.207747 -1.501782,-2.282063 -2.471455,-3.25031 0,0 -3.945284,2.448595 -3.945284,2.448595 v 0 c 1.05877,0.840305 1.935397,1.870328 2.675594,3.000145 1.962401,2.677542 4.172206,5.319301 7.080084,7.030045 3.25867,1.917118 4.039588,1.728471 7.817635,2.492573 1.667791,0.137029 3.330786,0.358741 5.003378,0.411085 3.70732,0.116027 7.848383,-0.111334 11.497393,-0.750241 1.99109,-0.348619 4.00657,-0.693126 5.90031,-1.40002 6.371664,-2.378409 7.947344,-3.649823 13.001434,-6.855558 1.08554,-1.082228 2.3121,-2.039404 3.25661,-3.24668 1.87206,-2.392896 2.95144,-5.61246 2.80334,-8.651362 -0.0662,-1.357321 -0.54149,-2.718318 -0.91634,-4.006187 -0.25233,-0.614366 -0.47607,-1.241266 -0.75699,-1.843099 -0.95295,-2.041606 -2.24402,-4.19649 -4.08463,-5.569015 -0.75976,-0.566547 -1.57413,-1.11969 -2.48496,-1.381625 -1.03455,-0.297517 -2.14605,-0.172493 -3.21908,-0.258742 -1.29584,0.285709 -2.61554,0.479098 -3.887524,0.857126 -1.5177,0.451053 -2.98899,1.047726 -4.46341,1.624738 -5.70678,2.233325 -11.203605,4.941367 -16.535038,7.957128 -2.315827,1.203169 -4.716277,2.51266 -7.134179,3.498062 -2.765416,1.127025 -4.848121,1.689335 -7.70987,2.418244 -0.994488,0.253304 -2.003347,0.447972 -2.997324,0.703294 -0.607117,0.15595 -1.202819,0.353385 -1.804228,0.530075 0,0 -3.540413,2.788522 -3.540413,2.788522 z" />
    <path
       style="fill:#000000;fill-opacity:1;fill-rule:nonzero;stroke:none;stroke-width:0.334664"
       id="path48"
       d="m 100.41682,81.261587 c 0.39502,2.507004 0.93525,4.988382 1.34386,7.493305 0.1104,0.676718 0.24319,1.351542 0.30235,2.034648 0.047,0.542408 0.0102,1.08882 0.0153,1.633234 -0.22736,1.602657 -0.7381,2.278542 -1.89248,3.303443 0,0 4.17556,-1.720796 4.17556,-1.720796 v 0 c 1.13292,-1.185009 1.46728,-1.879222 1.58089,-3.571347 -0.0394,-0.546196 -0.0469,-1.095642 -0.11828,-1.638584 -0.0887,-0.674644 -0.2418,-1.339246 -0.36129,-2.00912 -0.44932,-2.518884 -0.97217,-5.064572 -0.90252,-7.635965 0,0 -4.14343,2.111182 -4.14343,2.111182 z" />
    <path
       style="fill:#000000;fill-opacity:1;fill-rule:nonzero;stroke:none;stroke-width:0.334664"
       id="path50"
       d="m 92.592746,83.212365 c 0.0441,1.536424 0.0404,3.072597 0.11806,4.60818 0.13508,1.391887 0.37819,2.769515 0.56831,4.154198 0.10088,0.73474 0.27918,1.771771 0.18933,2.534907 -0.0388,0.329196 -0.17649,0.639001 -0.26474,0.958508 -0.18615,0.23939 -0.32786,0.521241 -0.55846,0.718182 -0.22777,0.194525 -1.03906,0.595274 -0.78805,0.431828 3.10629,-2.022747 4.3308,-2.19878 2.3941,-1.787304 0,0 -3.6261,2.728078 -3.6261,2.728078 v 0 c 2.44962,-0.313145 0.96961,-0.03162 5.42353,-2.585818 0.26815,-0.153783 0.51781,-0.352962 0.71377,-0.592036 0.20709,-0.252633 0.31628,-0.571659 0.47443,-0.857495 0.0609,-0.348055 0.16465,-0.691291 0.18271,-1.044165 0.038,-0.742152 -0.16047,-1.838821 -0.26101,-2.550822 -0.19453,-1.377514 -0.41361,-2.755308 -0.47994,-4.146818 -0.0272,-1.557538 -3e-5,-3.116227 0.0431,-4.673269 0,0 -4.12904,2.103846 -4.12904,2.103846 z" />
    <path
       style="fill:#000000;fill-opacity:1;fill-rule:nonzero;stroke:none;stroke-width:0.334664"
       id="path52"
       d="m 66.902598,83.803229 c 0.422079,2.782329 1.431894,5.545032 1.308267,8.392475 -0.02363,0.544414 -0.155328,1.078721 -0.232994,1.618089 -0.362468,1.197202 -0.930206,2.287117 -1.801485,3.191211 -0.203873,0.21155 -0.428708,0.403203 -0.661216,0.582828 -0.198275,0.153163 -0.845231,0.537836 -0.62796,0.413069 1.119198,-0.642694 2.223134,-1.311597 3.334702,-1.967408 -0.664959,0.312094 -0.341408,0.174717 -0.968134,0.418015 0,0 -3.618143,2.828028 -3.618143,2.828028 v 0 c 0.666504,-0.230561 0.322141,-0.10372 1.031777,-0.384268 1.690986,-0.97671 3.58212,-1.700129 5.017398,-3.024286 1.154253,-1.064884 1.820164,-2.47055 2.185073,-3.982187 0.05347,-0.555646 0.155609,-1.108753 0.160411,-1.666945 0.02473,-2.874456 -1.048537,-5.649529 -0.991466,-8.526135 0,0 -4.13623,2.107514 -4.13623,2.107514 z" />
    <path
       style="fill:#000000;fill-opacity:1;fill-rule:nonzero;stroke:none;stroke-width:0.334664"
       id="path54"
       d="m 59.701432,80.393111 c 0.137691,1.737057 0.571108,3.426664 0.889669,5.134475 0.291395,1.56218 0.300551,1.724259 0.531262,3.284302 0.116545,1.764504 0.383068,4.016948 -1.051502,5.372892 -0.169252,0.159981 -0.379024,0.270746 -0.568534,0.406113 6.738225,-4.032198 3.957412,-2.106064 2.7056,-1.748434 -0.424822,0.121428 -0.633563,0.110044 -1.058175,0.131673 0,0 -3.70632,2.704311 -3.70632,2.704311 v 0 c 2.65002,0.02087 3.470763,-1.05054 6.274096,-2.792308 0.169146,-0.16771 0.360784,-0.315434 0.507438,-0.503129 1.225186,-1.568118 0.890769,-3.774828 0.737684,-5.601154 -0.302447,-1.949186 -0.196716,-1.331576 -0.541892,-3.296049 -0.301472,-1.71574 -0.700967,-3.442169 -0.590295,-5.19654 0,0 -4.129031,2.103848 -4.129031,2.103848 z" />
    <path
       style="fill:#000000;fill-opacity:1;fill-rule:nonzero;stroke:none;stroke-width:0.334664"
       id="path56"
       d="m 114.04977,51.741248 c 0.28132,-1.407253 0.68331,-3.527984 1.06546,-4.777302 0.31708,-1.036532 0.52821,-2.14993 1.1376,-3.046356 0.44543,-0.655225 1.70776,-2.193269 1.90221,-1.425204 1.07391,4.241974 -4.84024,0.434217 -0.039,2.952007 0.46188,0.44837 0.92376,0.896739 1.38564,1.345109 0,0 3.63892,-2.234781 3.63892,-2.234781 v 0 c -0.48368,-0.479056 -0.96735,-0.95811 -1.45104,-1.437165 -0.60373,-0.359819 -1.11401,-1.168495 -1.81116,-1.079457 -1.50563,0.192295 -5.97436,1.443103 -7.24541,3.564258 -0.56489,0.942693 -0.7951,2.049886 -1.14668,3.091107 -0.34481,1.021125 -0.62772,2.062114 -0.94158,3.093171 -0.22417,0.651944 -0.44834,1.303886 -0.67251,1.955829 0,0 4.17753,-2.001216 4.17753,-2.001216 z" />
    <path
       style="fill:#000000;fill-opacity:1;fill-rule:nonzero;stroke:none;stroke-width:0.334664"
       id="path58"
       d="m 41.450347,54.407107 c 0.758996,0.575355 1.481637,1.189859 2.165322,1.852828 0.256303,0.26126 0.482439,0.547344 0.749035,0.79936 0,0 3.869831,-2.639035 3.869831,-2.639035 v 0 c -0.004,0.02396 0.01214,0.07207 -0.01214,0.07187 -0.16097,-0.0014 -0.502907,-0.623393 -0.675399,-0.664084 -0.708946,-0.618603 -1.428311,-1.226702 -2.129252,-1.852149 0,0 -3.967381,2.431215 -3.967381,2.431215 z" />
    <path
       style="fill:#000000;fill-opacity:1;fill-rule:nonzero;stroke:none;stroke-width:0.334664"
       id="path60"
       d="m 25.188836,76.269605 c 1.329975,-1.458381 2.865545,-2.706631 4.470998,-3.848312 0.741306,-0.527163 1.54276,-0.967909 2.271757,-1.511967 0.387261,-0.289019 -1.70418,0.891379 -1.243741,0.744749 0.708839,-0.225737 1.334674,-0.657485 2.002011,-0.986226 0,0 3.288903,-2.626431 3.288903,-2.626431 v 0 c -4.974268,2.423736 -9.966152,5.232486 -14.023332,9.058702 -0.352488,0.332419 -0.665852,0.704021 -0.998778,1.056034 0,0 4.232182,-1.886549 4.232182,-1.886549 z" />
    <path
       style="fill:#000000;fill-opacity:1;fill-rule:nonzero;stroke:none;stroke-width:0.334664"
       id="path64"
       d="m 49.690988,39.045524 c -0.07372,-1.884164 0.07574,-3.782262 0.597549,-5.602018 0.160248,-0.558847 0.293347,-1.146648 0.610943,-1.633598 0.228874,-0.350918 1.293822,-1.065066 0.97324,-0.795333 -0.896953,0.754678 -1.801611,1.500153 -2.702417,2.250233 1.476747,0.764265 2.242563,2.12657 3.08027,3.485174 0,0 3.750734,-2.181222 3.750734,-2.181222 v 0 c -0.90108,-1.445552 -1.75442,-2.908183 -3.206937,-3.882651 -1.672689,0.673535 -3.410986,1.20278 -5.018067,2.020599 -0.8279,0.421309 -1.148645,1.906054 -1.323159,2.593639 -0.482582,1.901351 -0.626803,3.859204 -0.804797,5.805006 0,0 4.042641,-2.059829 4.042641,-2.059829 z" />
    <path
       style="fill:#f9f9f9;stroke-width:0.936015"
       d="m 299.76027,308.79662 c -9.55846,-1.14934 -22.60265,-3.58057 -27.76421,-5.17482 -12.43296,-3.84015 -25.00447,-14.6945 -35.52086,-30.66902 -2.91858,-4.43335 -6.13413,-8.97733 -7.14568,-10.09773 l -1.83917,-2.0371 6.8845,-1.98471 c 21.2856,-6.13635 22.84586,-6.83962 79.89365,-36.01119 23.19729,-11.86201 44.77166,-20.43696 58.59019,-23.28726 17.83812,-3.6794 29.35675,3.12997 38.7487,22.90675 11.37051,23.94308 8.92598,42.98971 -7.62777,59.43184 -8.3441,8.28783 -21.9289,16.89348 -28.67823,18.16698 -2.67961,0.50561 -8.66288,1.94814 -13.29615,3.20564 -4.63327,1.25751 -12.42559,2.9488 -17.31627,3.75843 -8.57452,1.41947 -38.20025,2.60124 -44.9287,1.79219 z"
       id="path68"
       transform="scale(0.26458334)" />
    <path
       style="fill:#f9f9f9;stroke-width:0.936015"
       d="m 112.55734,294.62778 c -6.02912,-0.31036 -20.906165,-2.23794 -21.904684,-2.83813 -0.464399,-0.27914 0.435266,-1.18019 1.999255,-2.00234 1.563988,-0.82214 6.331022,-4.51812 10.593409,-8.21328 4.26239,-3.69517 10.24614,-8.11783 13.29723,-9.82816 6.23036,-3.49248 19.82041,-13.78059 19.12373,-14.47728 -1.47733,-1.47733 -31.36193,16.15447 -43.623006,25.73741 l -8.813888,6.8887 -3.011261,-1.43597 c -4.854455,-2.31492 -9.727185,-7.14151 -12.264177,-12.14802 -1.861531,-3.67356 -2.362514,-6.06109 -2.362514,-11.25908 0,-5.90154 0.417367,-7.42003 3.959583,-14.406 4.533676,-8.94134 14.069227,-19.90144 19.904921,-22.87859 5.679134,-2.89727 12.713702,-3.13666 24.037422,-0.81798 11.42035,2.33847 19.60674,5.72685 20.30714,8.40521 0.45036,1.72215 1.03552,1.56738 8.78033,-2.32229 6.70679,-3.36836 8.18552,-4.48235 7.71215,-5.80994 -1.0001,-2.80486 -2.50199,-4.21956 -6.2757,-5.91137 l -3.64061,-1.63214 2.80179,-1.44886 c 2.77379,-1.43438 2.80719,-1.54524 3.34171,-11.08973 0.80582,-14.38913 5.793,-31.47656 10.27166,-35.19352 0.72811,-0.60428 3.13701,-1.73841 5.35311,-2.5203 4.36615,-1.54047 6.57328,-0.77101 6.57328,2.29159 0,0.89306 2.34087,3.21406 5.29038,5.24546 6.37662,4.39175 13.87034,13.15302 16.89379,19.75137 1.21763,2.65734 2.69427,8.42197 3.28142,12.81028 l 1.06754,7.97873 2.64569,-1.36813 2.64568,-1.36814 v 9.68231 c 0,18.28455 -3.08347,22.96487 -22.94425,34.82646 -8.24058,4.92158 -13.68764,9.11682 -21.88849,16.85817 -6.00479,5.66833 -12.88396,11.60839 -15.28704,13.20012 -5.8005,3.84209 -16.51617,5.87767 -27.8656,5.29344 z m 63.19208,-83.74728 7.00639,-4.87087 -3.04073,-3.16666 c -1.6724,-1.74167 -4.20122,-4.00267 -5.61959,-5.02446 l -2.57887,-1.85779 -7.24929,4.38331 c -3.98711,2.41082 -7.45639,4.57868 -7.70951,4.81746 -0.51819,0.48884 10.35958,10.49663 11.4708,10.55339 0.39293,0.0201 3.86729,-2.1554 7.7208,-4.83438 z"
       id="path70"
       transform="scale(0.26458334)" />
  </g>
</svg>
